,
Brought to you by  http://www.scenetime.com/signup.php
 
 Hottest scene tracker on the net !!!   
 
No fake torrents from scenebalance 
shame on those who comment fake before downloading my torrents

    seed back for speed


 



...................................NFO:.................................................[pre]
      ,LGBBBBBBBBBBBBY                                      .5u                                     
    PBBBUr,.   BBO :YBBO                                    LBBi                                    
  :BB.        :BB     BBB                            :BX                                            
  BB          BBM     qBB:                           BB                                             
  BB0        :BB.     BBB  rBF rBBr  iBBB   7BB8. kuGBBY  ,PBi   vS7,,ii  :8q                       
   BBBB.     BBB     BBB .BBB:rBBB1 BB, B: OB jBB r5BB:LqBZBBY PBB:BBBBB BB:BB                   ,  
    ,;:      BB8NMBBBBU  B OM7B  . BB  BB  BB      FB  :B ,Bk BBr  iB:  BB  BB                  BBU 
            NBB ijYL,     :BBB    OB1UBB   NB7    :BJ    .BB LB5   EB. BB:UBG                   .BX 
            BBX           BBB    YBGYi     .BB    BB    .BB  BB   ;BB BBM21                     ,B. 
           2BB           BBB     BB   Y     BB,  jB ;:  BB   7B, OB0  BB                      ;BB.  
           BBM          ;BB     rBB  BBrU   BB   BBkB  BB NG  BBM5.   BBj                .LGBBBv    
      1ZPMBBBB2FF       BB.     .BBBBj MBBPBB:  BBBr  1BBB2 rB0        FBBBBBBBBBBBBBBBBBBBMr       
      222j7;rvSPP       v.        7i    ,YF:    Fr     r,   7BBBMi        :72k0NENEP27;,            
                                                          7BMNiLBBBBr                               
                                                        NBN.      .BB2                              
                                                       jBB         :Bv                              
                                                        7BBBGjL7LJGB;                               
                                                           :JXNEFji                 

*******************************************************************************
                  Burke.&.Hare.2010.480.BRRip.XviD.AC3-PRESTiGE
*******************************************************************************

-------------------------------------------------------------------------------
                              General Information
-------------------------------------------------------------------------------

TiTLE............: Burke.&.Hare.2010.480.BRRip.XviD.AC3-PRESTiGE

iMDB.............: http://www.imdb.com/title/tt1320239/

GENRE............: Comedy | Thriller

LANGUAGE.........: English

SOURCE...........: 720p.BluRay.DD5.1.x264-EbP MANY THANKS!!

FiLE SiZE........: 1.96GB

SUBS.............: N/A

DURATiON.........: 1h 29mn 56ms

ENCODED by.......: akosipalos



ViDEO iNFO:

ID                               : 0
Format                           : MPEG-4 Visual
Format profile                   : Advanced Simple@L5
Format settings, BVOP            : Yes
Format settings, QPel            : No
Format settings, GMC             : No warppoints
Format settings, Matrix          : Default (H.263)
Codec ID                         : XVID
Codec ID/Hint                    : XviD
Duration                         : 1h 29mn
Bit rate                         : 2 465 Kbps
Width                            : 720 pixels
Height                           : 304 pixels
Display aspect ratio             : 2.35:1
Frame rate                       : 24.000 fps
Color space                      : YUV
Chroma subsampling               : 4:2:0
Bit depth                        : 8 bits
Scan type                        : Progressive
Bits/(Pixel*Frame)               : 0.469
Stream size                      : 1.55 GiB (79%)
Writing library                  : XviD 1.2.1 (UTC 2008-12-04) 



AUDiO iNFO:

ID                               : 1
Format                           : AC-3
Format/Info                      : Audio Coding 3
Mode extension                   : CM (complete main)
Codec ID                         : 2000
Duration                         : 1h 29mn
Bit rate mode                    : Constant
Bit rate                         : 640 Kbps
Channel(s)                       : 6 channels
Channel positions                : Front: L C R, Side: L R, LFE
Sampling rate                    : 48.0 KHz
Bit depth                        : 16 bits
Stream size                      : 412 MiB (21%)
Alignment                        : Aligned on interleaves
Interleave, duration             : 64 ms (1.54 video frames)
Interleave, preload duration     : 192 ms
Title                            : T2_Audio - 5.1 channels



-------------------------------------------------------------------------------
                                 PLOT:
-------------------------------------------------------------------------------


A black comedy about two 19th century grave robbers who find a lucrative business providing cadavers for an Edinburgh medical school.


-------------------------------------------------------------------------------
                                 CAST:
-------------------------------------------------------------------------------


Simon Pegg 

Isla Fisher

Christopher Lee 

Tim Curry


-------------------------------------------------------------------------------
                               SCREENS:
-------------------------------------------------------------------------------


[img]http://i824.photobucket.com/albums/zz161/akosipalos/bh1-1.png[/img]

[img]http://i824.photobucket.com/albums/zz161/akosipalos/bh2-1.png[/img]

[img]http://i824.photobucket.com/albums/zz161/akosipalos/bh3-1.png[/img]

[img]http://i824.photobucket.com/albums/zz161/akosipalos/bh4-1.png[/img]


-------------------------------------------------------------------------------
                             Release Notes
-------------------------------------------------------------------------------


PRESTiGE - IS LOOKING FOR?: CAMMER'S, AUDIO SUPPLIERS, SYNCER'S, RETAIL
SUPPLIER'S, SILVER'S, SCREENER'S, LINE CAPPER'S

ENCODER'S - ANYTHING AT ALL EMAIL US AT..... prestige@hushmail.me

** ** ** ** ** ** ** ** **

PRESTiGE is the level of respect at which one is regarded by others....RIzE Above Or Sink Below...


-------------------------------------------------------------------------------
                                 GREETZ:
-------------------------------------------------------------------------------


twisted ,bigguy, CTFX, HiTM4N, smelise.paranoid53, mtyy, fifer, akosipalos, DiLLoN, imagine,"the squad" , floridajoe and To All Encoders Past And Present...


-------------------------------------------------------------------------------
Generated with Cool NFO Creator - http://fly.to/coolbeans
-------------------------------------------------------------------------------
[/pre]